<?xml version="1.0" encoding="UTF-8" standalone="no"?>
<svg width="512" height="512" viewBox="0 0 512 512" fill="none" xmlns="http://www.w3.org/2000/svg">
  <!-- Background circle -->
  <circle cx="256" cy="256" r="240" fill="#1E1E2A"/>
  
  <!-- Outer decorative ring -->
  <circle cx="256" cy="256" r="232" stroke="#DCC291" stroke-width="2" fill="none"/>
  <circle cx="256" cy="256" r="224" stroke="#DCC291" stroke-width="1" fill="none"/>
  
  <!-- Scroll/parchment base -->
  <path d="M130 180 Q 180 150, 256 150 Q 332 150, 382 180 L 382 332 Q 332 362, 256 362 Q 180 362, 130 332 Z" fill="#E8D5B5"/>
  
  <!-- Scroll shadows and details -->
  <path d="M130 180 Q 180 150, 256 150 Q 332 150, 382 180 L 382 332 Q 332 362, 256 362 Q 180 362, 130 332 Z" fill="#C4B190" fill-opacity="0.3"/>
  
  <!-- Scroll top curl left -->
  <path d="M130 180 Q 120 170, 115 160 Q 110 150, 110 140 Q 110 130, 120 125 Q 130 120, 140 125 Q 150 130, 155 140 Q 160 150, 160 160 Q 160 170, 150 180" fill="#E8D5B5"/>
  <path d="M130 180 Q 120 170, 115 160 Q 110 150, 110 140 Q 110 130, 120 125 Q 130 120, 140 125 Q 150 130, 155 140 Q 160 150, 160 160 Q 160 170, 150 180" stroke="#C4B190" stroke-width="1" fill="none"/>
  
  <!-- Scroll top curl right -->
  <path d="M382 180 Q 392 170, 397 160 Q 402 150, 402 140 Q 402 130, 392 125 Q 382 120, 372 125 Q 362 130, 357 140 Q 352 150, 352 160 Q 352 170, 362 180" fill="#E8D5B5"/>
  <path d="M382 180 Q 392 170, 397 160 Q 402 150, 402 140 Q 402 130, 392 125 Q 382 120, 372 125 Q 362 130, 357 140 Q 352 150, 352 160 Q 352 170, 362 180" stroke="#C4B190" stroke-width="1" fill="none"/>
  
  <!-- Horizontal lines representing text on the scroll -->
  <line x1="160" y1="190" x2="352" y2="190" stroke="#8A795D" stroke-width="2" stroke-opacity="0.7"/>
  <line x1="170" y1="210" x2="342" y2="210" stroke="#8A795D" stroke-width="2" stroke-opacity="0.7"/>
  <line x1="180" y1="230" x2="332" y2="230" stroke="#8A795D" stroke-width="2" stroke-opacity="0.7"/>
  <line x1="190" y1="250" x2="322" y2="250" stroke="#8A795D" stroke-width="2" stroke-opacity="0.7"/>
  <line x1="170" y1="270" x2="342" y2="270" stroke="#8A795D" stroke-width="2" stroke-opacity="0.7"/>
  <line x1="160" y1="290" x2="352" y2="290" stroke="#8A795D" stroke-width="2" stroke-opacity="0.7"/>
  <line x1="170" y1="310" x2="342" y2="310" stroke="#8A795D" stroke-width="2" stroke-opacity="0.7"/>
  
  <!-- Ornamental stars -->
  <path d="M256 100 L 260 108 L 268 110 L 260 112 L 256 120 L 252 112 L 244 110 L 252 108 Z" fill="#DCC291"/>
  <path d="M256 392 L 260 400 L 268 402 L 260 404 L 256 412 L 252 404 L 244 402 L 252 400 Z" fill="#DCC291"/>
  <path d="M100 256 L 104 264 L 112 266 L 104 268 L 100 276 L 96 268 L 88 266 L 96 264 Z" fill="#DCC291"/>
  <path d="M412 256 L 416 264 L 424 266 L 416 268 L 412 276 L 408 268 L 400 266 L 408 264 Z" fill="#DCC291"/>
  
  <!-- SORTES text -->
  <text x="256" y="340" text-anchor="middle" font-family="serif" font-weight="bold" font-size="40" fill="#1E1E2A">SORTES</text>
</svg> 